<svg width="593" height="484" viewBox="0 0 593 484" fill="none" xmlns="http://www.w3.org/2000/svg">
<g clip-path="url(#clip0)">
<path opacity="0.1" d="M579.976 482.194C584.987 477.181 579.187 463.251 567.022 451.081C554.856 438.911 540.932 433.109 535.92 438.122C530.909 443.135 536.709 457.065 548.875 469.235C561.04 481.405 574.965 487.207 579.976 482.194Z" fill="#F9A826"/>
<path d="M560.153 462.192C563.957 462.192 567.041 458.153 567.041 453.17C567.041 448.187 563.957 444.148 560.153 444.148C556.349 444.148 553.266 448.187 553.266 453.17C553.266 458.153 556.349 462.192 560.153 462.192Z" fill="#3F3D56"/>
<path d="M560.153 451.167C563.957 451.167 567.041 447.127 567.041 442.144C567.041 437.161 563.957 433.122 560.153 433.122C556.349 433.122 553.266 437.161 553.266 442.144C553.266 447.127 556.349 451.167 560.153 451.167Z" fill="#3F3D56"/>
<path d="M560.153 440.141C563.957 440.141 567.041 436.101 567.041 431.118C567.041 426.135 563.957 422.096 560.153 422.096C556.349 422.096 553.266 426.135 553.266 431.118C553.266 436.101 556.349 440.141 560.153 440.141Z" fill="#3F3D56"/>
<path d="M560.153 429.115C563.957 429.115 567.041 425.075 567.041 420.093C567.041 415.11 563.957 411.07 560.153 411.07C556.349 411.07 553.266 415.11 553.266 420.093C553.266 425.075 556.349 429.115 560.153 429.115Z" fill="#3F3D56"/>
<path d="M560.153 418.089C563.957 418.089 567.041 414.05 567.041 409.067C567.041 404.084 563.957 400.044 560.153 400.044C556.349 400.044 553.266 404.084 553.266 409.067C553.266 414.05 556.349 418.089 560.153 418.089Z" fill="#3F3D56"/>
<path d="M560.153 407.063C563.957 407.063 567.041 403.024 567.041 398.041C567.041 393.058 563.957 389.019 560.153 389.019C556.349 389.019 553.266 393.058 553.266 398.041C553.266 403.024 556.349 407.063 560.153 407.063Z" fill="#3F3D56"/>
<path d="M560.153 396.037C563.957 396.037 567.041 391.998 567.041 387.015C567.041 382.032 563.957 377.993 560.153 377.993C556.349 377.993 553.266 382.032 553.266 387.015C553.266 391.998 556.349 396.037 560.153 396.037Z" fill="#3F3D56"/>
<path d="M585.939 311.562C586.881 310.364 587.739 309.102 588.507 307.786L570.405 304.813L589.983 304.954C591.861 300.867 592.887 296.439 592.997 291.942C593.107 287.446 592.3 282.973 590.625 278.799L564.364 292.432L588.571 274.618C586.303 270.692 583.252 267.275 579.606 264.58C575.96 261.886 571.799 259.971 567.381 258.956C562.963 257.942 558.383 257.848 553.928 258.682C549.472 259.516 545.236 261.259 541.483 263.803C537.731 266.346 534.542 269.636 532.117 273.467C529.691 277.298 528.081 281.587 527.385 286.068C526.69 290.549 526.925 295.125 528.075 299.511C529.226 303.898 531.267 308 534.072 311.562C532.605 313.426 531.344 315.443 530.311 317.579L553.805 329.78L528.77 321.367C527.012 326.569 526.578 332.128 527.507 337.54C528.437 342.952 530.699 348.047 534.092 352.364C530.264 357.233 527.882 363.081 527.22 369.24C526.557 375.398 527.641 381.619 530.346 387.191C533.051 392.763 537.269 397.461 542.518 400.747C547.766 404.034 553.833 405.777 560.025 405.777C566.217 405.777 572.284 404.034 577.532 400.747C582.78 397.461 586.998 392.763 589.704 387.191C592.409 381.619 593.492 375.398 592.83 369.24C592.168 363.081 589.786 357.233 585.958 352.364C590.532 346.546 593.019 339.359 593.019 331.957C593.019 324.554 590.532 317.367 585.958 311.549L585.939 311.562Z" fill="#F9A826"/>
<path opacity="0.1" d="M527.011 331.969C526.999 339.374 529.487 346.565 534.072 352.377C530.244 357.246 527.863 363.094 527.201 369.252C526.538 375.411 527.622 381.632 530.327 387.204C533.032 392.776 537.25 397.473 542.498 400.76C547.747 404.047 553.814 405.79 560.006 405.79C566.198 405.79 572.264 404.047 577.513 400.76C582.761 397.473 586.979 392.776 589.684 387.204C592.39 381.632 593.473 375.411 592.811 369.252C592.148 363.094 589.767 357.246 585.939 352.377C590.362 346.765 527.011 328.264 527.011 331.969Z" fill="black"/>
<path d="M543.682 0V462.353L387.055 440.52L196.657 479.376L195.123 479.691L43.6309 437.951V35.9608L200.9 0L372.933 35.9608L379.474 34.5801L543.682 0Z" fill="#444053"/>
<path d="M517.363 25.2496V438.933L377.227 419.399L206.87 454.165L205.496 454.441L69.9493 417.1V57.4217L210.67 25.2496L364.588 57.4217L370.442 56.1887L517.363 25.2496Z" fill="white"/>
<path opacity="0.1" d="M387.055 440.52L196.657 479.376L200.9 0L372.933 35.9608L379.474 34.5801L387.055 440.52Z" fill="black"/>
<g opacity="0.3">
<path opacity="0.3" d="M368.041 88.6176L368.118 223.149H423.965V167.924H519.61L530.843 153.514" stroke="#444053" stroke-width="3" stroke-miterlimit="10"/>
<path opacity="0.3" d="M57.1111 131.321H264.77L277.609 125.542H282.744V255.257H372.612L376.463 266.816V325.252H445.79V397.495" stroke="#444053" stroke-width="3" stroke-miterlimit="10"/>
<path opacity="0.3" d="M310.173 397.495V255.257" stroke="#444053" stroke-width="3" stroke-miterlimit="10"/>
<path opacity="0.3" d="M530.843 359.389H310.173" stroke="#444053" stroke-width="3" stroke-miterlimit="10"/>
<path opacity="0.3" d="M475.575 88.6176V397.495" stroke="#444053" stroke-width="3" stroke-miterlimit="10"/>
<path opacity="0.3" d="M56.4692 332.085H530.843" stroke="#444053" stroke-width="3" stroke-miterlimit="10"/>
<path opacity="0.3" d="M114.203 397.495V88.6176" stroke="#444053" stroke-width="3" stroke-miterlimit="10"/>
<path opacity="0.3" d="M224.471 88.6176V397.495" stroke="#444053" stroke-width="3" stroke-miterlimit="10"/>
<path opacity="0.3" d="M57.1111 166.64L423.965 167.924" stroke="#444053" stroke-width="3" stroke-miterlimit="10"/>
<path opacity="0.3" d="M163.881 89.1763V397.495" stroke="#444053" stroke-width="3" stroke-miterlimit="10"/>
<path opacity="0.3" d="M56.4692 238.125H224.471L310.173 332.085" stroke="#444053" stroke-width="3" stroke-miterlimit="10"/>
<path opacity="0.3" d="M328.737 88.6176V255.257" stroke="#444053" stroke-width="3" stroke-miterlimit="10"/>
<path opacity="0.3" d="M310.173 285.105H530.843" stroke="#444053" stroke-width="3" stroke-miterlimit="10"/>
</g>
<path d="M376.142 283.833H311.309V255.578L372.612 255.257L376.463 266.174L376.142 283.833Z" fill="#AC84FF"/>
<path d="M344.047 137.422C334.635 137.422 325.61 141.162 318.955 147.819C312.3 154.476 308.562 163.505 308.562 172.92C308.562 192.525 344.047 256.221 344.047 256.221C344.047 256.221 379.532 192.551 379.532 172.92C379.532 163.505 375.793 154.476 369.138 147.819C362.484 141.162 353.458 137.422 344.047 137.422ZM344.047 188.062C340.959 188.062 337.941 187.146 335.373 185.43C332.806 183.714 330.805 181.275 329.624 178.421C328.442 175.568 328.133 172.427 328.735 169.398C329.338 166.369 330.824 163.586 333.008 161.402C335.191 159.218 337.973 157.73 341.001 157.128C344.029 156.525 347.168 156.834 350.021 158.016C352.873 159.198 355.311 161.2 357.027 163.768C358.742 166.337 359.658 169.356 359.658 172.445C359.656 176.586 358.011 180.556 355.083 183.484C352.156 186.411 348.186 188.056 344.047 188.056V188.062Z" fill="#AC84FF"/>
<path opacity="0.1" d="M344.047 137.422C334.635 137.422 325.61 141.162 318.955 147.819C312.3 154.476 308.562 163.505 308.562 172.92C308.562 192.525 344.047 256.221 344.047 256.221C344.047 256.221 379.532 192.551 379.532 172.92C379.532 163.505 375.793 154.476 369.138 147.819C362.484 141.162 353.458 137.422 344.047 137.422ZM344.047 188.062C340.959 188.062 337.941 187.146 335.373 185.43C332.806 183.714 330.805 181.275 329.624 178.421C328.442 175.568 328.133 172.427 328.735 169.398C329.338 166.369 330.824 163.586 333.008 161.402C335.191 159.218 337.973 157.73 341.001 157.128C344.029 156.525 347.168 156.834 350.021 158.016C352.873 159.198 355.311 161.2 357.027 163.768C358.742 166.337 359.658 169.356 359.658 172.445C359.656 176.586 358.011 180.556 355.083 183.484C352.156 186.411 348.186 188.056 344.047 188.056V188.062Z" fill="black"/>
<path d="M344.047 142.559C334.635 142.559 325.61 146.299 318.955 152.956C312.3 159.613 308.562 168.642 308.562 178.057C308.562 197.662 344.047 261.358 344.047 261.358C344.047 261.358 379.532 197.688 379.532 178.057C379.532 168.642 375.793 159.613 369.138 152.956C362.484 146.299 353.458 142.559 344.047 142.559ZM344.047 193.199C340.959 193.199 337.941 192.283 335.373 190.567C332.806 188.851 330.805 186.412 329.624 183.558C328.442 180.705 328.133 177.565 328.735 174.535C329.338 171.506 330.824 168.723 333.008 166.539C335.191 164.355 337.973 162.867 341.001 162.265C344.029 161.662 347.168 161.972 350.021 163.154C352.873 164.336 355.311 166.337 357.027 168.906C358.742 171.474 359.658 174.493 359.658 177.582C359.656 181.723 358.011 185.694 355.083 188.621C352.156 191.548 348.186 193.193 344.047 193.193V193.199Z" fill="#F9A826"/>
<path opacity="0.1" d="M332.019 479.097C342.911 474.405 350.174 466.962 348.241 462.473C346.309 457.985 335.913 458.15 325.021 462.843C314.13 467.535 306.867 474.978 308.799 479.466C310.732 483.955 321.128 483.79 332.019 479.097Z" fill="#F9A826"/>
<path d="M328.268 473.687C330.892 473.687 333.018 470.904 333.018 467.471C333.018 464.038 330.892 461.255 328.268 461.255C325.645 461.255 323.518 464.038 323.518 467.471C323.518 470.904 325.645 473.687 328.268 473.687Z" fill="#3F3D56"/>
<path d="M328.268 466.084C330.892 466.084 333.018 463.301 333.018 459.868C333.018 456.435 330.892 453.652 328.268 453.652C325.645 453.652 323.518 456.435 323.518 459.868C323.518 463.301 325.645 466.084 328.268 466.084Z" fill="#3F3D56"/>
<path d="M328.268 458.487C330.892 458.487 333.018 455.704 333.018 452.271C333.018 448.838 330.892 446.055 328.268 446.055C325.645 446.055 323.518 448.838 323.518 452.271C323.518 455.704 325.645 458.487 328.268 458.487Z" fill="#3F3D56"/>
<path d="M328.268 450.89C330.892 450.89 333.018 448.107 333.018 444.674C333.018 441.241 330.892 438.458 328.268 438.458C325.645 438.458 323.518 441.241 323.518 444.674C323.518 448.107 325.645 450.89 328.268 450.89Z" fill="#3F3D56"/>
<path d="M328.268 443.287C330.892 443.287 333.018 440.504 333.018 437.071C333.018 433.638 330.892 430.855 328.268 430.855C325.645 430.855 323.518 433.638 323.518 437.071C323.518 440.504 325.645 443.287 328.268 443.287Z" fill="#3F3D56"/>
<path d="M328.268 435.691C330.892 435.691 333.018 432.907 333.018 429.474C333.018 426.041 330.892 423.258 328.268 423.258C325.645 423.258 323.518 426.041 323.518 429.474C323.518 432.907 325.645 435.691 328.268 435.691Z" fill="#3F3D56"/>
<path d="M328.268 428.094C330.892 428.094 333.018 425.311 333.018 421.878C333.018 418.445 330.892 415.662 328.268 415.662C325.645 415.662 323.518 418.445 323.518 421.878C323.518 425.311 325.645 428.094 328.268 428.094Z" fill="#3F3D56"/>
<path d="M310.494 369.869C309.846 369.054 309.254 368.196 308.722 367.301L321.201 365.246L307.721 365.349C306.428 362.531 305.723 359.48 305.648 356.381C305.573 353.282 306.129 350.2 307.284 347.323L325.386 356.686L308.696 344.408C310.26 341.703 312.363 339.349 314.875 337.492C317.388 335.636 320.256 334.317 323.3 333.619C326.344 332.92 329.5 332.856 332.57 333.431C335.64 334.005 338.559 335.207 341.145 336.96C343.731 338.712 345.928 340.979 347.599 343.619C349.271 346.259 350.381 349.214 350.86 352.302C351.339 355.39 351.178 358.543 350.386 361.565C349.593 364.588 348.187 367.415 346.255 369.869C347.256 371.157 348.117 372.547 348.822 374.018L332.64 382.436L349.907 376.657C351.12 380.242 351.42 384.073 350.78 387.804C350.14 391.534 348.58 395.046 346.242 398.022C348.881 401.377 350.523 405.409 350.98 409.654C351.437 413.899 350.691 418.188 348.826 422.029C346.961 425.87 344.054 429.108 340.436 431.374C336.818 433.64 332.636 434.841 328.368 434.841C324.099 434.841 319.917 433.64 316.3 431.374C312.682 429.108 309.774 425.87 307.91 422.029C306.045 418.188 305.299 413.899 305.756 409.654C306.213 405.409 307.854 401.377 310.494 398.022C307.342 394.011 305.628 389.057 305.628 383.955C305.628 378.853 307.342 373.899 310.494 369.889V369.869Z" fill="#F9A826"/>
<path opacity="0.1" d="M351.108 383.913C351.116 389.018 349.402 393.975 346.242 397.983C348.881 401.339 350.523 405.37 350.98 409.615C351.437 413.861 350.69 418.149 348.826 421.99C346.961 425.831 344.054 429.07 340.436 431.335C336.818 433.601 332.636 434.803 328.368 434.803C324.099 434.803 319.917 433.601 316.3 431.335C312.682 429.07 309.774 425.831 307.91 421.99C306.045 418.149 305.299 413.861 305.756 409.615C306.213 405.37 307.854 401.339 310.494 397.983C307.445 394.13 351.108 381.383 351.108 383.913Z" fill="black"/>
<path opacity="0.1" d="M52.9643 468.066C57.9754 463.053 52.1755 449.123 40.0099 436.952C27.8443 424.782 13.9197 418.98 8.90857 423.993C3.89742 429.006 9.69727 442.936 21.8629 455.106C34.0286 467.277 47.9531 473.079 52.9643 468.066Z" fill="#F9A826"/>
<path d="M33.142 448.065C36.946 448.065 40.0297 444.025 40.0297 439.043C40.0297 434.06 36.946 430.02 33.142 430.02C29.338 430.02 26.2543 434.06 26.2543 439.043C26.2543 444.025 29.338 448.065 33.142 448.065Z" fill="#3F3D56"/>
<path d="M33.142 437.039C36.946 437.039 40.0297 433 40.0297 428.017C40.0297 423.034 36.946 418.994 33.142 418.994C29.338 418.994 26.2543 423.034 26.2543 428.017C26.2543 433 29.338 437.039 33.142 437.039Z" fill="#3F3D56"/>
<path d="M33.142 426.013C36.946 426.013 40.0297 421.974 40.0297 416.991C40.0297 412.008 36.946 407.969 33.142 407.969C29.338 407.969 26.2543 412.008 26.2543 416.991C26.2543 421.974 29.338 426.013 33.142 426.013Z" fill="#3F3D56"/>
<path d="M33.142 414.987C36.946 414.987 40.0297 410.948 40.0297 405.965C40.0297 400.982 36.946 396.943 33.142 396.943C29.338 396.943 26.2543 400.982 26.2543 405.965C26.2543 410.948 29.338 414.987 33.142 414.987Z" fill="#3F3D56"/>
<path d="M33.142 403.962C36.946 403.962 40.0297 399.922 40.0297 394.939C40.0297 389.956 36.946 385.917 33.142 385.917C29.338 385.917 26.2543 389.956 26.2543 394.939C26.2543 399.922 29.338 403.962 33.142 403.962Z" fill="#3F3D56"/>
<path d="M33.142 392.936C36.946 392.936 40.0297 388.896 40.0297 383.913C40.0297 378.931 36.946 374.891 33.142 374.891C29.338 374.891 26.2543 378.931 26.2543 383.913C26.2543 388.896 29.338 392.936 33.142 392.936Z" fill="#3F3D56"/>
<path d="M33.142 381.91C36.946 381.91 40.0297 377.87 40.0297 372.888C40.0297 367.905 36.946 363.865 33.142 363.865C29.338 363.865 26.2543 367.905 26.2543 372.888C26.2543 377.87 29.338 381.91 33.142 381.91Z" fill="#3F3D56"/>
<path d="M58.9277 297.434C59.8701 296.237 60.7281 294.975 61.4953 293.658L43.3933 290.685L62.9717 290.826C64.8498 286.739 65.8754 282.312 65.9858 277.815C66.0961 273.318 65.289 268.846 63.6136 264.671L37.3529 278.304L61.5595 260.491C59.292 256.564 56.2403 253.147 52.5946 250.453C48.9488 247.758 44.7872 245.844 40.3693 244.829C35.9514 243.814 31.3719 243.721 26.9163 244.555C22.4607 245.388 18.2246 247.131 14.4721 249.675C10.7195 252.219 7.53112 255.509 5.10557 259.34C2.68003 263.17 1.06937 267.46 0.374035 271.941C-0.321296 276.422 -0.0863872 280.998 1.0641 285.384C2.21459 289.77 4.25599 293.872 7.06102 297.434C5.59365 299.298 4.33242 301.316 3.29941 303.451L26.7935 315.652L1.75881 307.24C0.0009763 312.442 -0.432998 318 0.496127 323.412C1.42525 328.824 3.68818 333.92 7.08028 338.237C3.25221 343.105 0.870872 348.953 0.208532 355.112C-0.453809 361.271 0.629576 367.492 3.33483 373.064C6.04008 378.635 10.258 383.333 15.5064 386.62C20.7547 389.907 26.8217 391.65 33.0136 391.65C39.2055 391.65 45.2725 389.907 50.5208 386.62C55.7692 383.333 59.9871 378.635 62.6924 373.064C65.3976 367.492 66.481 361.271 65.8187 355.112C65.1563 348.953 62.775 343.105 58.9469 338.237C63.5209 332.418 66.0076 325.231 66.0076 317.829C66.0076 310.427 63.5209 303.24 58.9469 297.421L58.9277 297.434Z" fill="#F9A826"/>
<path opacity="0.1" d="M-1.48748e-05 317.842C-0.0124199 325.246 2.47576 332.437 7.06104 338.25C3.23297 343.118 0.85163 348.966 0.18929 355.125C-0.473051 361.284 0.610334 367.505 3.31558 373.076C6.02083 378.648 10.2388 383.346 15.4871 386.633C20.7355 389.92 26.8024 391.663 32.9944 391.663C39.1863 391.663 45.2532 389.92 50.5016 386.633C55.7499 383.346 59.9679 378.648 62.6731 373.076C65.3784 367.505 66.4618 361.284 65.7994 355.125C65.1371 348.966 62.7557 343.118 58.9277 338.25C63.3505 332.637 -1.48748e-05 314.137 -1.48748e-05 317.842Z" fill="black"/>
</g>
<defs>
<clipPath id="clip0">
<rect width="593" height="484" fill="white"/>
</clipPath>
</defs>
</svg>
