<svg width="36" height="75" viewBox="0 0 36 75" fill="none" xmlns="http://www.w3.org/2000/svg">
<path d="M34.2808 74.2683H1.39365V59.9358L32.4899 59.773L34.4436 65.3105L34.2808 74.2683Z" fill="#AC84FF"/>
<path d="M18 0C13.2261 0 8.64774 1.89714 5.27209 5.27407C1.89643 8.651 0 13.2311 0 18.0068C0 27.9516 18 60.2616 18 60.2616C18 60.2616 36 27.9646 36 18.0068C36 13.2311 34.1036 8.651 30.7279 5.27407C27.3523 1.89714 22.7739 0 18 0ZM18 25.6877C16.4338 25.6877 14.9027 25.2231 13.6005 24.3526C12.2982 23.4822 11.2832 22.2449 10.6838 20.7974C10.0845 19.3498 9.92765 17.757 10.2332 16.2203C10.5388 14.6836 11.293 13.272 12.4005 12.1641C13.5079 11.0562 14.919 10.3017 16.4551 9.99603C17.9912 9.69036 19.5835 9.84724 21.0305 10.4468C22.4775 11.0464 23.7142 12.0618 24.5844 13.3646C25.4545 14.6673 25.919 16.199 25.919 17.7658C25.9181 19.8662 25.0834 21.8804 23.5984 23.3653C22.1134 24.8503 20.0997 25.6845 18 25.6845V25.6877Z" fill="#AC84FF"/>
<path opacity="0.1" d="M18 0C13.2261 0 8.64774 1.89714 5.27209 5.27407C1.89643 8.651 0 13.2311 0 18.0068C0 27.9516 18 60.2616 18 60.2616C18 60.2616 36 27.9646 36 18.0068C36 13.2311 34.1036 8.651 30.7279 5.27407C27.3523 1.89714 22.7739 0 18 0ZM18 25.6877C16.4338 25.6877 14.9027 25.2231 13.6005 24.3526C12.2982 23.4822 11.2832 22.2449 10.6838 20.7974C10.0845 19.3498 9.92765 17.757 10.2332 16.2203C10.5388 14.6836 11.293 13.272 12.4005 12.1641C13.5079 11.0562 14.919 10.3017 16.4551 9.99603C17.9912 9.69036 19.5835 9.84724 21.0305 10.4468C22.4775 11.0464 23.7142 12.0618 24.5844 13.3646C25.4545 14.6673 25.919 16.199 25.919 17.7658C25.9181 19.8662 25.0834 21.8804 23.5984 23.3653C22.1134 24.8503 20.0997 25.6845 18 25.6845V25.6877Z" fill="black"/>
<path d="M18 2.6059C13.2261 2.6059 8.64774 4.50304 5.27209 7.87997C1.89643 11.2569 0 15.837 0 20.6127C0 30.5575 18 62.8675 18 62.8675C18 62.8675 36 30.5705 36 20.6127C36 15.837 34.1036 11.2569 30.7279 7.87997C27.3523 4.50304 22.7739 2.6059 18 2.6059ZM18 28.2936C16.4338 28.2936 14.9027 27.829 13.6005 26.9585C12.2982 26.0881 11.2832 24.8508 10.6838 23.4033C10.0845 21.9557 9.92765 20.3629 10.2332 18.8262C10.5388 17.2895 11.293 15.8779 12.4005 14.77C13.5079 13.6621 14.919 12.9076 16.4551 12.6019C17.9912 12.2963 19.5835 12.4531 21.0305 13.0527C22.4775 13.6523 23.7142 14.6677 24.5844 15.9705C25.4545 17.2732 25.919 18.8049 25.919 20.3717C25.9181 22.4721 25.0834 24.4863 23.5984 25.9712C22.1134 27.4562 20.0997 28.2904 18 28.2904V28.2936Z" fill="#F9A826"/>
</svg>
